<svg xmlns="http://www.w3.org/2000/svg" viewBox="0 0 3335.75 631.12"><defs><style>.a{fill:var(--illustration-background);}.b,.e,.h{fill:var(--illustration-secondary);}.c,.d,.f,.i,.j{fill:none;}.d,.e{stroke:var(--illustration-secondary);}.d,.e,.f,.g,.h,.i,.j{stroke-miterlimit:10;}.d,.e,.f,.g,.h{stroke-width:2.5px;}.f,.g,.h,.i,.j{stroke:var(--illustration-primary);}.g{fill:var(--illustration-primary);}.i{stroke-width:2.42px;}.j{stroke-width:3.06px;}</style></defs><path class="a" d="M3333.91,438.06c-400.28.7-525.72,26.52-525.72,64.94-116.48,0-210.73,45.12-210.73,100.88,0,4.47,83.39,9,186.95,9,0,5.5,49,9,109,9,48.4,0,88.42-5.7,88.42-14,173.15,0,313-5.62,313-12.82a271.68,271.68,0,0,0,39.06-2.74Z" transform="translate(1.11 -10.21)"/><path class="b" d="M3333.91,563.39a839.93,839.93,0,0,0-132.23-10.11c-150.29,0-276.72,36.78-313.8,86.72h446Z" transform="translate(1.11 -10.21)"/><path class="a" d="M1624.8,550.61C1670,556,1714,563.76,1756.48,581.74c30.75,27.92,65.08,46,101.53,58.26h362.12c-.25-.73-.49-1.45-.75-2.2-11-25.36-30.84-72.51-95.69-66.65-154,13.92-270.24-25.58-423.53-43.06C1677.37,520.39,1498.85,535.65,1624.8,550.61Z" transform="translate(1.11 -10.21)"/><path class="a" d="M3333.33,45.23c-16.11,15.14-25.95,35.81-32.26,57.12-4.14,14-7,28.33-10.83,42.39-4,14.7-10.37,28.25-11.78,43.58-1.32,14.32-4.09,27.62-6.94,42.18a326.69,326.69,0,0,0-5.77,47.59,186.58,186.58,0,0,0-.22,21c.4,5.86,2.56,11.32,7.87,14.43,4.93,2.88,9.87,2.36,15.28,1.37a406.08,406.08,0,0,0,44.65-11.1Z" transform="translate(1.11 -10.21)"/><polyline class="c" points="800.51 251.33 885.34 319.31 886.23 320.03 887.13 320.74"/><path class="b" d="M885.56,329l.89.72c-.15.42-.29.83-.43,1.25s-.29.84-.43,1.26l-.9-.72-.89-.72-85.18-68.26.78-1,.78-1,84.49,67.71Z" transform="translate(1.11 -10.21)"/><polyline class="c" points="1744.96 251.26 1646.02 330.58 1645.12 331.3 1644.22 332.02"/><path class="b" d="M1744.63,262.44l-99.33,79.62-.89.72-.91.73-.39-1.28c-.14-.43-.27-.86-.41-1.28l.91-.73.89-.72,98.57-79,.78,1Z" transform="translate(1.11 -10.21)"/><polyline class="c" points="850.09 184.28 915.28 253 916.06 253.82 916.83 254.62"/><path class="b" d="M915.6,262.9l.76.8-.64,1.13c-.22.38-.43.76-.64,1.15l-.77-.81-.78-.83-65.46-69,.91-.86.9-.86,64.94,68.44Z" transform="translate(1.11 -10.21)"/><polyline class="c" points="1693.1 185.42 1618.52 264.26 1617.74 265.09 1616.96 265.91"/><path class="b" d="M1692.89,196.49,1618,275.64l-.78.83-.78.82c-.19-.39-.4-.78-.61-1.17s-.4-.78-.61-1.17l.77-.82.79-.83,74.28-78.53.91.86Z" transform="translate(1.11 -10.21)"/><polyline class="c" points="921.63 121.24 964.85 183.84 965.48 184.75 966.14 185.71"/><path class="b" d="M965.23,194l.66,1-.86,1-.85,1-.67-1-.63-.91-43.39-62.85,1-.71,1-.71,43.05,62.34Z" transform="translate(1.11 -10.21)"/><polyline class="c" points="1622.25 121.24 1571.94 194.44 1571.31 195.37 1570.65 196.33"/><path class="b" d="M1622.17,132.16l-50.51,73.5-.64.93-.65.95-.83-1-.84-1,.66-1,.64-.92,50.11-72.92,1,.71Z" transform="translate(1.11 -10.21)"/><polyline class="c" points="995.24 72.2 1023.83 129.64 1024.31 130.61 1024.88 131.75"/><path class="b" d="M1024.22,140.05l.57,1.14-1,.77-1,.76-.57-1.14-.48-1L993,83l2.24-1.12,28.49,57.23Z" transform="translate(1.11 -10.21)"/><polyline class="c" points="1550.46 72.2 1516.8 139.78 1516.31 140.76 1515.75 141.9"/><path class="b" d="M1550.47,83l-33.78,67.83-.49,1-.57,1.13-1-.81-1-.82.56-1.13.49-1,33.53-67.33Z" transform="translate(1.11 -10.21)"/><polyline class="c" points="1089.4 92.27 1088.98 91.04 1088.63 90.01 1070.56 37.05"/><path class="b" d="M1089,100.7l.41,1.22-1.12.56c-.38.18-.76.36-1.14.56l-.42-1.24-.35-1-18.12-53.11,1.19-.4,1.18-.4,18,52.81Z" transform="translate(1.11 -10.21)"/><polyline class="c" points="1161.26 65.37 1161.03 64.17 1160.82 63.11 1150.95 13.16"/><path class="b" d="M1161.13,74.06l.24,1.2-1.22.32-1.2.32-.24-1.2-.21-1.06-9.88-50,1.22-.24,1.23-.24L1160.92,73Z" transform="translate(1.11 -10.21)"/><polyline class="c" points="1229.6 53.37 1229.52 52.27 1229.44 51.18 1225.61 0.1"/><path class="b" d="M1229.66,62.37l.08,1.1-1.25.11-1.24.11-.08-1.1-.08-1.09-3.83-51.1,1.24-.09,1.25-.1,3.82,51.08Z" transform="translate(1.11 -10.21)"/><polyline class="c" points="1473.87 37.05 1453.4 97.37 1453.05 98.41 1452.63 99.65"/><path class="b" d="M1474,47.66l-20.54,60.53-.35,1-.42,1.25-1.12-.61-1.11-.6.42-1.24.35-1,20.4-60.13,1.18.4Z" transform="translate(1.11 -10.21)"/><polyline class="c" points="1388.69 13.16 1378.67 66.46 1378.47 67.52 1378.24 68.74"/><path class="b" d="M1388.81,23.6l-10,53.43-.2,1.06-.23,1.22c-.4-.13-.81-.25-1.21-.36l-1.2-.37.23-1.2.2-1.07,10-53.17,1.22.23Z" transform="translate(1.11 -10.21)"/><polyline class="c" points="1319.25 0.1 1315.34 53.01 1315.26 54.1 1315.18 55.22"/><path class="b" d="M1319.38,10.4l-3.91,53-.08,1.08-.08,1.13-1.24-.17-1.24-.16.08-1.12.08-1.09,3.9-52.84,1.25.09Z" transform="translate(1.11 -10.21)"/><polyline class="c" points="786.64 345.69 784.79 344.61 782.96 343.54 756.87 328.29"/><polygon class="b" points="787.27 344.61 789.12 345.69 784.17 345.69 782.32 344.61 780.49 343.54 756.24 329.37 756.87 328.29 757.5 327.21 785.44 343.54 787.27 344.61"/><polyline class="c" points="1775.41 328.29 1749.48 343.54 1747.66 344.61 1745.82 345.69"/><polyline class="b" points="1743.35 345.69 1745.18 344.61 1747 343.54 1774.77 327.21 1775.41 328.29 1776.04 329.37 1751.95 343.54 1750.13 344.61 1748.29 345.69"/><polygon class="a" points="3137.54 199.4 3107.99 369.33 3176.13 369.33 3137.54 199.4"/><polygon class="a" points="3039.13 123.26 2995.82 402.7 3082.43 402.7 3039.13 123.26"/><polygon class="a" points="2994.19 337.26 2960.83 190.36 2931.28 360.29 2990.38 360.29 2994.19 337.26"/><polygon class="a" points="3335.02 379.42 3321.24 311.97 3306.47 406.5 3335.02 406.5 3335.02 379.42"/><path class="a" d="M3294.57,77.87c-5.24-5.24-16.13-6.36-21.21,0-36.38,45.49-39.51,103.54-40.47,159.44-.14,7.85,7,15.36,15,15,8.24-.37,14.85-6.59,15-15,.44-26.14.71-52.59,5.92-78a177.58,177.58,0,0,1,9.86-33c.09-.16.9-2,1-2.27.59-1.29,1.19-2.57,1.82-3.83q1.88-3.8,4-7.47a126.27,126.27,0,0,1,9.08-13.73C3299.62,92.76,3300.74,84,3294.57,77.87Z" transform="translate(1.11 -10.21)"/><path class="a" d="M2857,285.72c-7.85,0-15.37,6.9-15,15s6.59,15,15,15c7.84,0,15.36-6.9,15-15S2865.39,285.72,2857,285.72Z" transform="translate(1.11 -10.21)"/><path class="a" d="M3193.73,237.53c-7.84,0-15.36,6.9-15,15s6.59,15,15,15c7.85,0,15.37-6.9,15-15S3202.14,237.53,3193.73,237.53Z" transform="translate(1.11 -10.21)"/><path class="a" d="M1.57,640h632.1c-14.66-6.44-37.89-10.61-64.06-10.61-22.3,0-42.47,3-57,7.91-24.32-10.54-62.05-17.46-104.7-17.94-13.64-28.69-42.35-53.92-81.1-72.85l-21.56-86.38-17.61,70.55a399.42,399.42,0,0,0-76.77-16.85L171,266.73,131.64,511.08a445.86,445.86,0,0,0-48.95,5.12L54,401.08l-32.46,130q-10.27,3.43-19.92,7.39Z" transform="translate(1.11 -10.21)"/><path class="a" d="M2740.73,475.91l2.49,0c31.48-37.6,103.71-64.19,188.37-65.3-89-13.47-250.43,9.84-288.73,15.52-50.74,7.52-223.11,34.72-216.86,106.57,1.24,14.19,7.12,9.74,7.75,14.07,25.68-29,106.72-47,207.76-47.23C2668.9,484.74,2703.33,475.91,2740.73,475.91Z" transform="translate(1.11 -10.21)"/><path class="b" d="M2680.85,153.05c40.93,2.32,56.74,1,56.74-6.6,0,4.38-22.83,2.22-56,.25-37.2,0-65.23-5.76-65.23-11.6,0,11.24,27.63,18.18,61.72,18.18" transform="translate(1.11 -10.21)"/><path class="b" d="M2783.56,315.72v6.75h-10.3v1.47h-25.2l-22.51-34.61-17.62,34.61H2669V244.42a9.11,9.11,0,0,0,7.82,3.87c12.87,0,12.89-20,0-20a9.09,9.09,0,0,0-7.82,3.88v-20.5h-1l-34.8-73-35.77,75H2603v22.44l-17.81-.65L2603,269.13v9.24l-9.82-21.79-26.62,75h4.94v33.33h42.69c4.51-9.41,15.74-16.08,28.89-16.08a34.74,34.74,0,0,1,21.75,7.29,33.79,33.79,0,0,1,15.63-3.7c11.19,0,20.86,5.1,25.39,12.49h70.55V348.83h53.93V315.72Z" transform="translate(1.11 -10.21)"/><path class="b" d="M2699.87,247.54c12.87,0,12.89-20,0-20S2687,247.54,2699.87,247.54Z" transform="translate(1.11 -10.21)"/><path class="b" d="M2722.55,247.16c12.87,0,12.89-20,0-20S2709.66,247.16,2722.55,247.16Z" transform="translate(1.11 -10.21)"/><path class="b" d="M2172.74,407.55c-1.65,0-2-2-2-4.94a18.56,18.56,0,0,1-9.21-3.85c-.31,7.37-1.15,12.35.23,12.35,5.42,0,4.19,7,4.19,12.72,0,2.72-2.39,5.7-6.47,8.55a14.66,14.66,0,0,0-6.23-1.38,14.18,14.18,0,0,0-12.11,6.55,14.51,14.51,0,0,0-8.58-2.77A14.29,14.29,0,0,0,2121.4,440a50.19,50.19,0,0,1-31.24-6.36,14.41,14.41,0,0,0-9.92,3.87,14.51,14.51,0,0,0-23,.76c-7.06-2.43-12.37-5.54-15.5-9.34a23.36,23.36,0,0,1-9,1.79,24.19,24.19,0,0,1-2.84-.18c-.07,1-.1,2.06-.1,3.1.32,5.85-1,30,21.4,30h111.16c12.33,0,30.77-8.7,30.77-25C2193.14,423.26,2185.07,407.55,2172.74,407.55Z" transform="translate(1.11 -10.21)"/><path class="b" d="M1713.52,461.54a27.28,27.28,0,0,1-8.18-1.25c1.2,5,2.51,9.81,2.07,14.52l.39-.27a25.45,25.45,0,0,1-5.43,15.38,14.24,14.24,0,1,1-21.26,18.78,14.23,14.23,0,0,1-23.42,7.13,14.21,14.21,0,0,1-19.87-.68,14.24,14.24,0,0,1-22-1.77,14.22,14.22,0,0,1-20.45-1.89,14.25,14.25,0,1,1-16.87-22.95,33.84,33.84,0,0,1-9.83-9.89,32.84,32.84,0,0,1-12.79,3.88,60.84,60.84,0,0,0,1.39,18.88c1.83,7.93,6.69,9.35,6.69,9.35,27.68,19.56,146.58,18.14,146.58,18.14s13.38-9.35,15.81-21.26,3-33.29-7.49-46.62A28.2,28.2,0,0,1,1713.52,461.54Z" transform="translate(1.11 -10.21)"/><path class="b" d="M1382.25,360.79a18,18,0,0,1-7.37,2.57c3,.62,2.22,5.13,2.22,8.91,0,1.91-1.68,4-4.56,6a10.54,10.54,0,0,0-4.4-1,10,10,0,0,0-8.54,4.62,10.24,10.24,0,0,0-6-1.95,10.08,10.08,0,0,0-7.87,3.68,10.28,10.28,0,0,0-14.53-1.24,10.33,10.33,0,0,0-14.5-.52,10.26,10.26,0,0,0-16.24.54c-6-2.08-10.26-4.86-12.13-8.37a12.46,12.46,0,0,1-7.13,2.82c-.05.75-.08,1.52-.08,2.29.23,4.12-.66,21.17,15.1,21.17h78.42c8.69,0,21.7-6.14,21.7-17.61C1396.29,372,1390.75,361.09,1382.25,360.79Z" transform="translate(1.11 -10.21)"/><path class="b" d="M1246.81,353.73c-.72,0-1.07-.57-1.23-1.5a13.68,13.68,0,0,1-6.43-.2c-.17,2.52-.23,4.05.39,4.05,3.58,0,2.77,4.61,2.77,8.41,0,1.79-1.58,3.76-4.28,5.65a9.67,9.67,0,0,0-4.11-.92,9.37,9.37,0,0,0-8,4.33,9.61,9.61,0,0,0-5.67-1.82,9.43,9.43,0,0,0-7.37,3.44,9.45,9.45,0,0,0-7.37-3.44,9.6,9.6,0,0,0-6.25,2.28,9.67,9.67,0,0,0-13.58-.49,9.6,9.6,0,0,0-15.2.51,25.73,25.73,0,0,1-9.06-4.92,10.59,10.59,0,0,1-8.94-.79c-.07.87-.12,1.76-.12,2.65.21,3.87-.63,19.84,14.14,19.84H1240c8.15,0,20.33-5.75,20.33-16.5C1260.28,364.11,1255,353.73,1246.81,353.73Z" transform="translate(1.11 -10.21)"/><path class="b" d="M461.64,381c-.71,0-1.07-.53-1.24-1.4h-.11a30.09,30.09,0,0,1-6.39-.68c-.19,2.72-.29,4.4.37,4.4,3.63,0,2.81,4.55,2.81,8.3,0,1.76-1.6,3.71-4.34,5.56a10.14,10.14,0,0,0-4.18-.9,9.55,9.55,0,0,0-8.11,4.27,10,10,0,0,0-5.75-1.8,9.69,9.69,0,0,0-7.48,3.4,9.69,9.69,0,0,0-7.48-3.4,9.88,9.88,0,0,0-6.33,2.25,10,10,0,0,0-13.78-.47,9.9,9.9,0,0,0-15.42.5c-4.34-1.46-7.68-3.28-9.83-5.48a14.11,14.11,0,0,1-8.47,4.75c.22,5.72,1.43,17.28,14.27,17.28h74.51c8.26,0,20.62-5.68,20.62-16.28C475.31,391.23,469.9,381,461.64,381Z" transform="translate(1.11 -10.21)"/><path class="d" d="M1622.79,358.21c-42.89-153.61-183.85-266.3-351.14-266.3S963.41,204.6,920.52,358.21Z" transform="translate(1.11 -10.21)"/><path class="b" d="M3083.32,63.6c-15.07,0-28.56,2.33-37.59,6-6.35-3.71-15-6-24.5-6-19.46,0-35.24,9.53-35.24,21.29,0,4,1.85,7.78,5.06,11-5.13-.35-10.6-.54-16.28-.54-29,0-52.43,4.86-52.43,10.84S2945.81,117,2974.77,117s52.42-4.85,52.42-10.84c0-2.81-5.17-5.37-13.65-7.29,5.76-6,15.6-10,26.83-10.06,8.44,5.16,24.51,8.65,43,8.65,27.21,0,49.27-7.59,49.27-16.94S3110.53,63.6,3083.32,63.6Z" transform="translate(1.11 -10.21)"/><path class="e" d="M2499.84,284.6a23.09,23.09,0,0,0,5.16-14.18c0-17.81-22.76-32.25-50.85-32.25s-50.84,14.44-50.84,32.25q0,.82.06,1.62a71.12,71.12,0,0,0-15.25-1.61c-19.92,0-36.57,7.83-40.6,18.29,17.22.73,32.31,3.84,42.43,8.34,5.34-4.54,12.68-7.93,21.09-9.54,9,9.1,24.93,15.15,43.11,15.15a76.85,76.85,0,0,0,19.37-2.42c6.82.54,14.51.85,22.64.85,28.27,0,51.19-3.7,51.19-8.26C2547.35,288.47,2526.39,284.9,2499.84,284.6Z" transform="translate(1.11 -10.21)"/><path class="e" d="M2097.4,194.54a7.83,7.83,0,0,0,.52-2.78c0-9.09-16-16.45-35.68-16.45a64.68,64.68,0,0,0-23.09,3.91,19.57,19.57,0,0,0,.4-3.91c0-14.68-16.22-26.58-36.23-26.58s-36.22,11.9-36.22,26.58a20.1,20.1,0,0,0,1.55,7.68c-1.81-.06-3.64-.09-5.51-.09-22.2,0-40.19,4.25-40.19,9.49s18,9.5,40.19,9.5a137.2,137.2,0,0,0,25.74-2.21,47.33,47.33,0,0,0,14.44,2.21,44.25,44.25,0,0,0,24-6.7,14.08,14.08,0,0,0,4.51,5.2c-3.38,2.05-5.3,4.39-5.3,6.88a5.8,5.8,0,0,0,1.37,3.57,57.2,57.2,0,0,1,72,8.63c12.08-2.69,20-7.15,20-12.2C2119.9,201.87,2110.89,197.15,2097.4,194.54Z" transform="translate(1.11 -10.21)"/><path class="f" d="M2584.79,349.76c0-23.38,5.2-36.57,9.52-36.57" transform="translate(1.11 -10.21)"/><path class="f" d="M2602.29,349.76c0-23.38-2.63-36.57-8-36.57" transform="translate(1.11 -10.21)"/><path class="f" d="M2708.59,349.76c0-18.61,2.2-33.67,7-33.67" transform="translate(1.11 -10.21)"/><path class="f" d="M2723,349.76c0-18.61-3.29-33.67-7.37-33.67" transform="translate(1.11 -10.21)"/><line class="f" x1="2578.37" y1="294.8" x2="2578.37" y2="344.87"/><polygon class="f" points="2598.57 344.87 2572.84 344.87 2572.61 350.43 2598.57 350.43 2598.57 344.87"/><line class="f" x1="2577.11" y1="294.8" x2="2603.4" y2="294.8"/><line class="f" x1="2593.73" y1="272.93" x2="2585.7" y2="294.8"/><line class="f" x1="2609.99" y1="339.54" x2="2623.21" y2="339.54"/><polyline class="f" points="2585.7 229.77 2552.43 313.98 2567.62 313.98 2590.73 249.91 2590.45 239.94"/><polyline class="f" points="2585.7 229.77 2625.05 313.98 2633.49 313.98 2596.91 236.95 2593.73 230.25"/><line class="f" x1="2634.27" y1="230.25" x2="2585.7" y2="230.25"/><line class="f" x1="2637.45" y1="239.94" x2="2634.27" y2="230.25"/><polyline class="f" points="2723.04 266.41 2745.56 313.98 2739.63 313.98 2723.04 276.96 2705.63 313.98 2700.51 313.98 2723.04 266.41 2692.94 266.41 2691.91 272.55 2685.98 312.25 2663.25 312.25 2652.19 312.25 2637.45 312.25 2637.45 239.94 2598.57 239.94"/><path class="f" d="M2580.43,224.25c0,9,1.86,16.21,4.16,16.21" transform="translate(1.11 -10.21)"/><path class="f" d="M2593.13,231c0-9.86-4.94-19.3-12-19.3" transform="translate(1.11 -10.21)"/><path class="f" d="M2593.13,231c0,1.48,17.9,2.67,40,2.67" transform="translate(1.11 -10.21)"/><path class="f" d="M2633.16,240.46" transform="translate(1.11 -10.21)"/><path class="f" d="M2691.83,276.62c0-4.77,4.07-8.63,0-8.63" transform="translate(1.11 -10.21)"/><path class="f" d="M2717.42,265.11c0,1.59-7.37,2.88-25.59,2.88" transform="translate(1.11 -10.21)"/><path class="f" d="M2727.25,265.11c0,6.68-3,11.51-5.32,11.51" transform="translate(1.11 -10.21)"/><path class="f" d="M2717.42,265.11a9.9,9.9,0,0,1,9.83-10,3.75,3.75,0,0,1,5.51-2.85c-2.35.83-2.72,3.17,0,5.14.68,5.52-2.64,3.12-2.64,7.68a3.19,3.19,0,0,0-2.87-3.45v3.45" transform="translate(1.11 -10.21)"/><path class="f" d="M2574.91,224.25c0-1.91,2.47-3.45,5.52-3.45v3.45" transform="translate(1.11 -10.21)"/><path class="f" d="M2581.66,212.74c-.48-1.07-3.71-4-6.75-2.87,2.32.47,2.76,2.59,4.09,5.75-2.61,1.3-4.09,3.86-4.09,8.63" transform="translate(1.11 -10.21)"/><path class="f" d="M2625.48,117a15.34,15.34,0,0,0-15.15-15.54" transform="translate(1.11 -10.21)"/><path class="f" d="M2625.48,117c0,16.77,35.65,15.15,62.7,15.15" transform="translate(1.11 -10.21)"/><path class="f" d="M2708.82,120.66c0,8.49-1.63,11.51-20.64,11.51" transform="translate(1.11 -10.21)"/><path class="f" d="M2708.82,120.66c0-7.21,5.32-13,11.88-13" transform="translate(1.11 -10.21)"/><path class="f" d="M2610.33,101.48c-4.75,0-9.94,0-8.6-6.14,5.6,1.91,4.3,4,4.3,8.83-5.51,2.68-4.3,6.35-4.3,14.19,2.75-3.86,8.6-2.83,8.6-6.33,3.42-.32,5.53,2.83,5.53,6.33-4.3,3-8.38,10.18-8.37,13.81-3.15,16.37,8.65,18,14.31,18l32.35,69.73h100.54l-32.91-64.57c2.15,0,6-6.39,5.84-14.78s-6.25-11.5-9.25-15.72c0-4.62-.28-7.75,2.33-7.85h0c1.71,2.35,4.24.46,6.83,4.78,1.67-5.86.46-10.15-1.69-12.78-2.33-3-4.7-5.78.72-9.34,3.13,6.88-3.82,7.94-5.86,7.94" transform="translate(1.11 -10.21)"/><path class="f" d="M2633.16,240.46c0-3.76-1.75-6.82,0-6.82" transform="translate(1.11 -10.21)"/><path class="f" d="M2616.38,149.6l-26.76,58.82c7.29-.13,2.5,10.17,2.5,10.17" transform="translate(1.11 -10.21)"/><polyline class="f" points="2626.59 132.51 2660.18 204.45 2665.29 204.45 2631.1 132.51 2626.59 132.51 2622.91 139.99"/><polyline class="f" points="2753.07 204.45 2746.59 204.45 2711.98 138.46 2719.48 138.46 2722.89 145.16"/><line class="f" x1="2632.31" y1="135.05" x2="2712.63" y2="139.69"/><line class="g" x1="2634.9" y1="140.51" x2="2715.49" y2="145.16"/><polyline class="f" points="2644.89 197.51 2602.58 197.54 2598.57 205.41"/><polyline class="f" points="2623.97 142.28 2595.5 203.49 2593.23 208.37 2601 209.05 2601 222.09"/><polyline class="f" points="2648.6 205.41 2623.97 152.91 2598.57 205.41 2608.29 205.41 2639.29 205.41 2653.26 205.41 2653.26 231.88 2640.52 231.88 2640.52 205.41 2618.32 205.41 2618.32 223.21"/><line class="f" x1="2608.29" y1="222.14" x2="2608.29" y2="205.41"/><polyline class="f" points="2658.54 209.72 2658.54 312.25 2653.26 312.25 2653.26 208.16"/><polyline class="f" points="2663.86 209.72 2663.86 231.88 2663.86 312.25"/><polyline class="f" points="2732.87 209.72 2732.87 231.88 2663.86 231.88"/><polyline class="f" points="2705.63 313.98 2705.74 339.54 2698.36 339.54 2698.36 313.98 2692.94 313.98 2718.53 266.41"/><line class="f" x1="2700.51" y1="313.98" x2="2698.36" y2="313.98"/><polyline class="f" points="2590.45 239.94 2588.59 244.92 2562.71 313.98"/><polyline class="f" points="2625.05 313.98 2618.32 313.98 2590.73 249.91"/><polyline class="f" points="2581.55 294.03 2593.2 262.09 2608.16 294.8 2603.4 294.8 2593.43 273.73"/><polygon class="f" points="2585.9 339.54 2603.4 339.54 2603.4 344.87 2598.57 344.87 2585.59 344.87 2585.9 339.54"/><polyline class="f" points="2572.61 350.43 2565.16 350.43 2565.16 353.79 2623.22 353.79 2623.22 339.54 2707.99 339.54 2724.11 339.54 2734.02 339.54 2734.02 301.46"/><line class="f" x1="2608.16" y1="294.8" x2="2609.6" y2="353.79"/><path class="f" d="M2580.43,355.08c0-27.67.78-46.23,3.08-46.23h17.66c1.89,0,4.54,22.55,4.54,55.15" transform="translate(1.11 -10.21)"/><polyline class="f" points="2578.37 339.54 2565.16 339.54 2565.16 313.98 2565.16 350.43"/><polyline class="f" points="2557.59 313.98 2557.59 344.87 2565.16 344.87 2565.16 332.2 2558.61 332.2"/><polyline class="f" points="2637.45 205.41 2637.45 231.88 2640.52 231.88"/><line class="f" x1="2616.15" y1="205.41" x2="2616.15" y2="222.09"/><polyline class="f" points="2710.81 302.98 2728.36 302.98 2728.36 338.92 2728.36 344.87 2716.74 344.87 2707.99 344.87 2707.99 339.54"/><polyline class="f" points="2718.53 286.54 2719.07 285.39 2728.36 302.98"/><polyline class="f" points="2631.68 310.16 2631.08 308.9 2637.45 308.9"/><line class="f" x1="2686.48" y1="308.9" x2="2695.67" y2="308.9"/><path class="f" d="M2662.75,321.51" transform="translate(1.11 -10.21)"/><path class="f" d="M2657.43,321.51" transform="translate(1.11 -10.21)"/><line class="f" x1="2623.21" y1="339.54" x2="2623.21" y2="313.98"/><path class="f" d="M2622.1,364c0-4.08,9.58-7.38,21.4-7.38" transform="translate(1.11 -10.21)"/><path class="f" d="M2662.75,364.67c0-4.45-8.61-8.05-19.25-8.05" transform="translate(1.11 -10.21)"/><path class="f" d="M2662.75,364.67c0-3.07,5.59-5.56,12.49-5.56" transform="translate(1.11 -10.21)"/><path class="f" d="M2686.45,370.71c0-3.08-2.49-11.6-11.21-11.6" transform="translate(1.11 -10.21)"/><path class="f" d="M2703.14,364.67c0-2.56-6.36,0-18.46,0" transform="translate(1.11 -10.21)"/><line class="f" x1="2636.36" y1="236.62" x2="2653.26" y2="236.62"/><polyline class="f" points="2663.86 236.62 2739.83 236.62 2739.83 209.72"/><polyline class="f" points="2739.83 236.62 2777.51 313.98 2745.56 313.98"/><polyline class="f" points="2734.02 339.54 2767.68 339.54 2767.68 313.98"/><polyline class="f" points="2755.8 269.41 2780.58 215.19 2739.83 216.15"/><polyline class="f" points="2758.34 274.63 2780.58 224.59 2802.9 275.3 2807.61 275.3 2780.58 215.19"/><polyline class="f" points="2783.14 305.88 2785.49 311.3 2778.94 311.3 2762.07 269.41 2767.68 269.41 2783.14 305.88 2816.82 305.88 2816.82 310.16 2825.01 310.16 2825.01 306.88 2796.53 269.41 2789.45 269.41"/><line class="f" x1="2775.91" y1="235.09" x2="2788.26" y2="269.56"/><polyline class="f" points="2816.82 310.16 2816.82 337.19 2767.68 337.19"/><path class="f" d="M2753.18,217c0,.75,6.05,0,14.41,0" transform="translate(1.11 -10.21)"/><path class="f" d="M2774.8,210.44c0,3.61-3.22,6.52-7.21,6.52" transform="translate(1.11 -10.21)"/><path class="f" d="M2779.47,225.4c2.26,0,4.08-7.56,4.08-18.69,0,2.44,2.49,3,5.54,3,0-4.18,1.95-4.72-1.94-7.06,0-3.66-2.14-5.21,1.62-6.43-1.62-1.46-5.21,1.36-5.21,3.9-4.84,0-8.76,4.64-8.76,10.36" transform="translate(1.11 -10.21)"/><polyline class="f" points="2768.43 269.41 2789.45 269.41 2816.82 305.88"/><rect class="f" x="2716.74" y="344.87" width="23.98" height="4.46"/><polyline class="f" points="2728.36 350.09 2728.36 354.46 2755.32 354.12 2755.32 349.33 2740.72 349.33"/><line class="f" x1="2728.36" y1="354.46" x2="2702.97" y2="354.46"/><polyline class="f" points="2767.68 339.54 2767.68 350.43 2755.32 350.43"/><path class="f" d="M2792.38,321.51c-4.87,0-8.82,9.83-8.82,22H2801c0-12.14-3.84-22-8.58-22" transform="translate(1.11 -10.21)"/><path class="f" d="M2801,343.48" transform="translate(1.11 -10.21)"/><path class="f" d="M2804.94,347.41" transform="translate(1.11 -10.21)"/><polyline class="f" points="2784.67 333.27 2780.49 333.27 2780.49 337.19"/><line class="f" x1="2767.68" y1="327.62" x2="2784.67" y2="327.62"/><line class="f" x1="2801.79" y1="327.62" x2="2816.82" y2="327.62"/><line class="f" x1="2668.36" y1="312.26" x2="2668.36" y2="339.54"/><polyline class="f" points="2802.07 333.27 2806.05 333.27 2806.05 337.19"/><line class="f" x1="2665.29" y1="204.45" x2="2746.59" y2="204.45"/><path class="f" d="M2616.38,207.73c0-14.15,3.38-25.6,7.56-25.6" transform="translate(1.11 -10.21)"/><path class="f" d="M2633.15,207.73c0-14.15-4.12-25.6-9.21-25.6" transform="translate(1.11 -10.21)"/><path class="f" d="M2639.41,240.46c0-11.34,3.09-20.52,6.91-20.52" transform="translate(1.11 -10.21)"/><path class="f" d="M2652.15,242.09c0-12.24-2.61-22.15-5.83-22.15" transform="translate(1.11 -10.21)"/><path class="f" d="M2607.18,232.36c0-6.87,2.18-12.42,4.89-12.42" transform="translate(1.11 -10.21)"/><path class="f" d="M2615,232.31c0-6.84-1.33-12.37-3-12.37" transform="translate(1.11 -10.21)"/><path class="f" d="M2667.25,242.09c0-12.24,3.06-22.15,6.84-22.15" transform="translate(1.11 -10.21)"/><path class="f" d="M2680.85,242.09c0-12.24-3-22.15-6.76-22.15" transform="translate(1.11 -10.21)"/><path class="f" d="M2690,242.09c0-12.24,3.74-22.15,8.36-22.15" transform="translate(1.11 -10.21)"/><path class="f" d="M2704.83,242.09c0-12.24-2.91-22.15-6.5-22.15" transform="translate(1.11 -10.21)"/><path class="f" d="M2712.11,242.09c0-12.24,3.22-22.15,7.21-22.15" transform="translate(1.11 -10.21)"/><path class="f" d="M2726.23,242.09c0-12.24-3.09-22.15-6.91-22.15" transform="translate(1.11 -10.21)"/><path class="f" d="M2624.8,349.76c0-12.2,3.39-22.08,7.58-22.08" transform="translate(1.11 -10.21)"/><path class="f" d="M2639.41,349.76c0-12.2-3.14-22.08-7-22.08" transform="translate(1.11 -10.21)"/><path class="f" d="M2648.48,349.76c0-12.2,3.44-22.08,7.7-22.08" transform="translate(1.11 -10.21)"/><path class="f" d="M2662.75,349.76c0-12.2-2.94-22.08-6.57-22.08" transform="translate(1.11 -10.21)"/><path class="f" d="M2675.24,348.83c0-11.69,3.66-21.15,8.18-21.15" transform="translate(1.11 -10.21)"/><path class="f" d="M2691.83,349.76c0-12.2-3.76-22.08-8.41-22.08" transform="translate(1.11 -10.21)"/><path class="f" d="M2738.72,348.83c0-11.69,4.16-21.15,9.31-21.15" transform="translate(1.11 -10.21)"/><path class="f" d="M2755.81,348.83c0-11.69-3.48-21.15-7.78-21.15" transform="translate(1.11 -10.21)"/><polygon class="f" points="3028.3 115.89 2985 402.7 3071.6 402.7 3028.3 115.89"/><polyline class="f" points="2996.36 327.43 3022.21 301.48 3022.21 277.1 3000.89 297.46"/><polyline class="f" points="3049.95 259.3 3028.3 239.16 3028.3 202.64 3044.28 221.77"/><polyline class="f" points="3062.36 341.49 3031.28 305.45 3034.68 378.02 3070.6 396.04"/><polygon class="f" points="2948.16 195.91 2923.45 359.6 2972.88 359.6 2948.16 195.91"/><polyline class="f" points="2929.94 316.64 2944.69 301.83 2944.69 287.92 2932.52 299.54"/><polyline class="f" points="2960.52 277.76 2948.16 266.27 2948.16 245.43 2957.29 256.34"/><polyline class="f" points="2967.6 324.67 2949.86 304.1 2951.8 345.51 2972.3 355.8"/><polygon class="f" points="3128.96 184.88 3162.59 369.33 3095.34 369.33 3128.96 184.88"/><polyline class="f" points="3153.76 320.92 3133.7 304.24 3133.7 288.56 3150.25 301.65"/><polyline class="f" points="3112.15 277.1 3128.96 264.16 3128.96 240.67 3116.55 252.97"/><polyline class="f" points="3102.51 329.97 3126.65 306.79 3124.01 353.46 3096.12 365.05"/><path class="f" d="M2290.9,402.76c0-28.54,118.26-51.64,264.4-51.64" transform="translate(1.11 -10.21)"/><path class="f" d="M2219.46,452.94c0-29.62,43.75-53.58,97.8-53.58" transform="translate(1.11 -10.21)"/><path class="f" d="M2290.9,490.35c0-50.29,122-91,272.68-91" transform="translate(1.11 -10.21)"/><path class="f" d="M2234.77,481.85c0-24.21,47.23-43.81,105.6-43.81" transform="translate(1.11 -10.21)"/><path class="f" d="M2219.46,452.94c0,3.87,13.16,7,29.42,7" transform="translate(1.11 -10.21)"/><path class="f" d="M2234.77,481.85c0,4.7,25.1,8.5,56.13,8.5" transform="translate(1.11 -10.21)"/><path class="f" d="M2340.37,544.78c0-80.38,234.61-145.42,524.54-145.42" transform="translate(1.11 -10.21)"/><path class="f" d="M2290.9,490.35c0,9.56,29.84,17.29,66.71,17.29" transform="translate(1.11 -10.21)"/><path class="f" d="M2476.28,571.14c0-35.1,73.83-63.5,165.08-63.5" transform="translate(1.11 -10.21)"/><path class="f" d="M2444.82,558.39c0-18.18,36.56-32.89,81.74-32.89" transform="translate(1.11 -10.21)"/><path class="f" d="M2444.82,558.39c0,3.29,14.07,6,31.46,6" transform="translate(1.11 -10.21)"/><path class="f" d="M2340.37,544.78c0,4.7,46.72,8.5,104.45,8.5" transform="translate(1.11 -10.21)"/><path class="f" d="M2555.3,612c0-71.92,94.43-130.11,211.13-130.11" transform="translate(1.11 -10.21)"/><path class="f" d="M2476.28,571.14c0,9.41,36.92,17,82.54,17" transform="translate(1.11 -10.21)"/><path class="f" d="M2555.3,612c0,8.93,100.43,9.94,227.29,9.94" transform="translate(1.11 -10.21)"/><path class="f" d="M2782.59,621.9c0-26.79,47.23-48.47,105.61-48.47" transform="translate(1.11 -10.21)"/><path class="f" d="M2782.59,621.9c0,3.76,47.23,6.8,105.61,6.8" transform="translate(1.11 -10.21)"/><path class="f" d="M2986,621.9c0-26.79-43.74-48.47-97.79-48.47" transform="translate(1.11 -10.21)"/><path class="f" d="M2986,621.9c0,3.76-43.74,6.8-97.79,6.8" transform="translate(1.11 -10.21)"/><path class="f" d="M2381.58,363.82c0-18.15,77.7-32.83,173.72-32.83" transform="translate(1.11 -10.21)"/><path class="f" d="M2813.07,400.06c0-16.72,48.88-30.25,109.27-30.25" transform="translate(1.11 -10.21)"/><path class="f" d="M2766.43,481.85c0-38.1,97.26-68.94,217.46-68.94" transform="translate(1.11 -10.21)"/><path class="f" d="M3296.91,603.88c0,8.93-140.9,9.94-312.28,9.94" transform="translate(1.11 -10.21)"/><path class="f" d="M3296.91,603.88c0,11.88,16.29,21.5,36.42,21.5" transform="translate(1.11 -10.21)"/><path class="f" d="M3296.91,603.88c0-45.83-164.63-82.91-368.08-82.91" transform="translate(1.11 -10.21)"/><path class="f" d="M3030.17,524.14c0-23.37-85.73-42.29-191.66-42.29" transform="translate(1.11 -10.21)"/><path class="f" d="M2838.51,481.85c0-32.43,75.88-58.68,169.66-58.68h325.74" transform="translate(1.11 -10.21)"/><path class="f" d="M3380.25,481.85" transform="translate(1.11 -10.21)"/><path class="f" d="M3125.54,533.77c0-25.47,89.75-46.63,208.37-51.06" transform="translate(1.11 -10.21)"/><path class="f" d="M3082.62,528.52c0-11.45,16.47-20.71,36.83-20.71" transform="translate(1.11 -10.21)"/><path class="f" d="M3142.62,515c0-4-10.36-7.22-23.17-7.22" transform="translate(1.11 -10.21)"/><path class="f" d="M3333.91,276.75c-37,26.71-104.28,44.56-181.26,44.56" transform="translate(1.11 -10.21)"/><line class="f" x1="3106.19" y1="309.79" x2="3057.57" y2="309.79"/><path class="f" d="M2838.51,331c0-6.07,40.86-11,91.35-11" transform="translate(1.11 -10.21)"/><path class="f" d="M3139.43,258.6c0-69.16-11.88-125.13-26.56-125.13-23.42,0-42.38,82.62-42.38,184.71" transform="translate(1.11 -10.21)"/><path class="f" d="M2931.41,309.75c0-64.21-12.25-116.17-27.38-116.17-16,0-28.87,57.52-28.87,128.6" transform="translate(1.11 -10.21)"/><path class="f" d="M2859.73,323.94c0-45.76,9.78-82.79,21.87-82.79" transform="translate(1.11 -10.21)"/><path class="f" d="M2983.89,320c0-82.05,16.3-148.44,36.44-148.44" transform="translate(1.11 -10.21)"/><path class="f" d="M2971.19,322.18c0-61.07,10.76-110.48,24.06-110.48" transform="translate(1.11 -10.21)"/><path class="f" d="M2937.14,271.81c0-33.23-8.24-60.11-18.41-60.11" transform="translate(1.11 -10.21)"/><line class="f" x1="2325.36" y1="366.73" x2="350.56" y2="366.73"/><path class="f" d="M2838.51,331c0,.83-10.2,1.51-22.8,1.51" transform="translate(1.11 -10.21)"/><path class="f" d="M3267.72,306.53c0-117.29,26.87-218.22,65.61-264.08" transform="translate(1.11 -10.21)"/><path class="f" d="M3247,311.68c0-119.58,16-216.34,35.74-216.34" transform="translate(1.11 -10.21)"/><path class="f" d="M3296.91,111.27c0-8.8-6.34-15.93-14.17-15.93" transform="translate(1.11 -10.21)"/><path class="f" d="M3230.12,315c0-45.65,8.65-82.59,19.35-82.59" transform="translate(1.11 -10.21)"/><path class="f" d="M3201.1,260.12c0-127.35,25.62-230.4,57.27-230.4" transform="translate(1.11 -10.21)"/><path class="f" d="M3289.83,97.48c0-37.45-14.07-67.76-31.46-67.76" transform="translate(1.11 -10.21)"/><path class="f" d="M3305.73,88.82c0-18.91-10.28-34.21-23-34.21" transform="translate(1.11 -10.21)"/><path class="f" d="M3302.65,71.72c0-26.89,12.6-49.29,29.37-54.47" transform="translate(1.11 -10.21)"/><path class="f" d="M3175,321.31c0-33.82,11.67-61.19,26.08-61.19" transform="translate(1.11 -10.21)"/><path class="f" d="M3230.12,315c0-30.3-13-54.83-29-54.83" transform="translate(1.11 -10.21)"/><path class="f" d="M3142.62,273.66c0-102.17,22.61-184.84,50.55-184.84" transform="translate(1.11 -10.21)"/><path class="f" d="M3215.61,109.25c0-11.29-10-20.43-22.44-20.43" transform="translate(1.11 -10.21)"/><path class="f" d="M2964.25,320c0,.73,15,1.31,33.47,1.31" transform="translate(1.11 -10.21)"/><path class="f" d="M3070.49,318.18c0-81-16.3-146.62-36.44-146.62" transform="translate(1.11 -10.21)"/><path class="f" d="M3056.46,202.53c0-21.79,14.92-39.41,33.36-39.41" transform="translate(1.11 -10.21)"/><path class="f" d="M2815.71,304.4c0-17.74,10.2-32.09,22.8-32.09" transform="translate(1.11 -10.21)"/><path class="f" d="M2859.73,298.77c0-14.63-9.49-26.46-21.22-26.46" transform="translate(1.11 -10.21)"/><path class="f" d="M2808.19,294.08c0-4.74,5.32-8.57,11.88-8.57" transform="translate(1.11 -10.21)"/><path class="f" d="M2850.12,276.62c0-51.14,11.2-92.52,25-92.52" transform="translate(1.11 -10.21)"/><path class="f" d="M2893.42,202.53a18.33,18.33,0,0,0-18.26-18.43" transform="translate(1.11 -10.21)"/><path class="f" d="M0,299.23c40.1,45.84,129.64,77.71,233.8,77.71" transform="translate(1.11 -10.21)"/><path class="f" d="M261,283.71c0,51.53,39.55,93.23,88.44,93.23" transform="translate(1.11 -10.21)"/><path class="f" d="M261,283.71c0,51.53,15.21,93.23,34,93.23" transform="translate(1.11 -10.21)"/><path class="f" d="M228.69,344.94c0,17.69,27.77,32,62.08,32" transform="translate(1.11 -10.21)"/><path class="f" d="M228.69,344.94c0,17.69,8.75,32,19.56,32" transform="translate(1.11 -10.21)"/><path class="f" d="M248.25,376.94H233.8" transform="translate(1.11 -10.21)"/><path class="f" d="M655.77,640c-18.8-15.53-100.52-27.2-198.63-27.2" transform="translate(1.11 -10.21)"/><path class="f" d="M412.28,605.91c0-60.68-180.06-110.6-412.28-117.33" transform="translate(1.11 -10.21)"/><path class="f" d="M80,492.73c0-19.62-33.25-36.34-80-42.84" transform="translate(1.11 -10.21)"/><path class="f" d="M1444.76,456.44c0,23.83,48.65,43.12,108.78,43.12" transform="translate(1.11 -10.21)"/><path class="f" d="M1444.76,452.94c0,23,16,41.67,35.71,41.67" transform="translate(1.11 -10.21)"/><path class="f" d="M1420.09,466.54c0,15.51,27,28.07,60.38,28.07" transform="translate(1.11 -10.21)"/><path class="f" d="M1420.09,466.54c0,15.51,11,28.07,24.67,28.07" transform="translate(1.11 -10.21)"/><path class="f" d="M1885.26,547.33c0-23.55-74.71-42.61-167-42.61" transform="translate(1.11 -10.21)"/><path class="f" d="M2030.68,640c0-77.63-121.72-140.44-272.13-140.44" transform="translate(1.11 -10.21)"/><path class="f" d="M2097.48,640.86c0-78.1-115.84-141.3-259-141.3" transform="translate(1.11 -10.21)"/><path class="f" d="M0,327.46C18.72,357.63,47.6,376.94,80,376.94" transform="translate(1.11 -10.21)"/><path class="f" d="M0,369c23.43,5.05,50.8,7.95,80.06,7.95" transform="translate(1.11 -10.21)"/><polygon class="f" points="3316.04 312.66 3302.24 404.08 3329.84 404.08 3316.04 312.66"/><polyline class="f" points="3305.86 380.08 3314.1 371.82 3314.1 364.05 3307.31 370.54"/><polyline class="f" points="3322.95 358.37 3316.04 351.95 3316.04 340.31 3321.14 346.41"/><polyline class="f" points="3326.9 384.57 3316.99 373.08 3318.08 396.21 3329.53 401.95"/><path class="h" d="M1557.55,502.77s-4.87-1.42-6.69-9.36-2.43-16.72,0-28.34,7-13.69,6.67-15.16c-2-8.94-4.13-4.4-4.13-4.4s2.19.06,2.66,3.13a3.56,3.56,0,0,1-3.78,4.25c-4.84-.16-9.06-7.13-6.06-11.58s6.34-5.39,11.33-4,7.47,9.68,3,19.83c-2,4.49-.61,11.62,7.91,17s57.84,37.54,110.43,14.42c34.08-15,18.91-29.58,18.3-46.87s6.59-19.14,12.67-18.29,10.95,4.25,13.38,11.34-7.53,4.5-7.53,4.5a36.57,36.57,0,0,0,3.12,2.72c1.35,1.08-.89,2.47-5.58,1.81a7.69,7.69,0,0,1-5.62-3.4s-6-.82,4.66,12.51,10,34.86,7.6,46.77-15.81,21.26-15.81,21.26S1585.22,522.33,1557.55,502.77Z" transform="translate(1.11 -10.21)"/><path class="h" d="M1551.15,444.72" transform="translate(1.11 -10.21)"/><path class="h" d="M1556.25,452.94" transform="translate(1.11 -10.21)"/><path class="f" d="M1559.63,461.77c0,20.88,42.27,37.79,94.51,37.79" transform="translate(1.11 -10.21)"/><path class="f" d="M1701.42,466.54c0,18.25-21.15,33-47.28,33" transform="translate(1.11 -10.21)"/><circle class="h" cx="1708.78" cy="422.31" r="1.56"/><circle class="h" cx="1581.32" cy="482.04" r="14.26"/><circle class="h" cx="1601.2" cy="484.39" r="14.26"/><circle class="h" cx="1622.25" cy="487.09" r="14.26"/><circle class="h" cx="1642.83" cy="487.09" r="14.26"/><circle class="h" cx="1662" cy="487.09" r="14.26"/><circle class="h" cx="1687.29" cy="482.04" r="14.26"/><polygon class="h" points="2470.2 191.32 2448.55 334.72 2491.85 334.72 2470.2 191.32"/><polyline class="f" points="2454.23 297.08 2467.15 284.11 2467.15 271.92 2456.49 282.1"/><polyline class="f" points="2481.02 263.02 2470.2 252.95 2470.2 234.69 2478.19 244.26"/><polyline class="f" points="2487.23 304.12 2471.69 286.1 2473.39 322.38 2491.34 331.39"/><polygon class="h" points="2522.14 228.17 2505.9 335.72 2538.38 335.72 2522.14 228.17"/><polyline class="f" points="2510.16 307.5 2519.85 297.77 2519.85 288.62 2511.86 296.26"/><polyline class="f" points="2530.26 281.95 2522.14 274.4 2522.14 260.7 2528.13 267.88"/><polyline class="f" points="2534.91 312.77 2523.25 299.25 2524.53 326.47 2538 333.23"/><polygon class="h" points="172.13 162.94 113.06 554.21 231.21 554.21 172.13 162.94"/><path class="a" d="M633.67,640c-14.66-6.44-37.89-10.61-64.06-10.61-22.3,0-42.47,3-57,7.91-24.32-10.54-62.05-17.46-104.7-17.94-13.64-28.69-42.35-53.92-81.1-72.85l-21.56-86.38-17.61,70.55a399.42,399.42,0,0,0-76.77-16.85L171,266.73,131.64,511.08q-13.18.66-26,2V640Z" transform="translate(1.11 -10.21)"/><polygon class="f" points="172.13 162.94 113.06 554.21 231.21 554.21 172.13 162.94"/><polyline class="f" points="128.57 451.52 163.82 416.13 163.82 382.87 134.74 410.65"/><polyline class="f" points="201.67 358.58 172.13 331.11 172.13 281.29 193.94 307.39"/><polyline class="f" points="218.6 470.71 176.2 421.54 180.84 520.54 229.84 545.13"/><polygon class="h" points="306.34 411.69 334.63 554.99 278.05 554.99 306.34 411.69"/><path class="a" d="M542.77,640h90.9c-14.66-6.44-37.89-10.61-64.06-10.61-22.3,0-42.47,3-57,7.91-24.32-10.54-62.05-17.46-104.7-17.94-13.64-28.69-42.35-53.92-81.1-72.85l-21.56-86.38-17.61,70.55q-13.46-4.44-27.89-8V640h54.45" transform="translate(1.11 -10.21)"/><line class="a" x1="315.29" y1="629.79" x2="543.88" y2="629.79"/><polyline class="f" points="327.21 517.38 310.32 504.42 310.32 492.24 324.25 502.41"/><polyline class="f" points="292.19 483.34 306.34 473.28 306.34 455.03 295.89 464.59"/><polyline class="f" points="284.08 524.4 304.39 506.4 302.17 542.65 278.7 551.66"/><polygon class="f" points="306.34 411.69 334.63 554.99 278.05 554.99 306.34 411.69"/><polygon class="h" points="55.06 324.2 90.72 516.49 19.4 516.49 55.06 324.2"/><path class="a" d="M82.69,516.2,54,401.08l-32.46,130q-11.11,3.72-21.49,8V640H112V512.49Q97,513.89,82.69,516.2Z" transform="translate(1.11 -10.21)"/><polyline class="f" points="81.36 466.02 60.08 448.63 60.08 432.28 77.63 445.93"/><polyline class="f" points="37.23 420.34 55.06 406.85 55.06 382.36 41.9 395.19"/><polyline class="f" points="27.01 475.45 52.61 451.29 49.81 499.94 20.23 512.02"/><polygon class="f" points="55.06 324.2 90.72 516.49 19.4 516.49 55.06 324.2"/><path class="h" d="M1277.8,362.13c0,11.9,21.73,17.52,51.82,17.52,19.94,0,38.66-8.57,38.66-15,0-4.09.87-9-3-9-1.16,0-.08-5.07-.08-12.06,0-6.77,3.47-12.24,7.74-12.24,7.39,0,10.83,3.47,10.83,10.23h-5.56c.74,0,2.5.05,2.5,2.85-6.25,0-8.68-.05-8.68-2.85,0,5.6-1.34,11.54,1.06,11.54,8.75,0,14.48,11.16,14.48,22.11,0,11.55-13.09,17.73-21.84,17.73h-78.91c-15.86,0-14.95-17.16-15.19-21.31" transform="translate(1.11 -10.21)"/><path class="h" d="M1277.8,362.13c0-1,0-1.93.07-2.78.11-1.93-6.22,7.08-6.22,12.28" transform="translate(1.11 -10.21)"/><circle class="h" cx="1375.72" cy="327.23" r="1.05"/><ellipse class="h" cx="1300.6" cy="369.69" rx="9.93" ry="9.3"/><ellipse class="h" cx="1315.6" cy="370.71" rx="9.93" ry="9.3"/><ellipse class="h" cx="1329.86" cy="371.52" rx="9.93" ry="9.3"/><ellipse class="h" cx="1345.69" cy="371.52" rx="9.93" ry="9.3"/><ellipse class="h" cx="1360.38" cy="368.83" rx="9.93" ry="9.3"/><path class="h" d="M1152.53,358.21c0,10.5,19.2,15.47,45.79,15.47,17.61,0,34.16-7.57,34.16-13.24,0-3.6.76-8-2.64-8-1,0-.07-4.48-.07-10.66,0-6,3.06-10.81,6.84-10.81,6.53,0,9.57,3.06,9.57,9h-4.92c.66,0,2.21,0,2.21,2.52-5.52,0-7.66-.05-7.66-2.52,0,5-1.19,10.2.93,10.2,7.73,0,12.79,9.85,12.79,19.53,0,10.21-11.56,15.66-19.29,15.66h-69.72c-14,0-13.22-15.16-13.42-18.82" transform="translate(1.11 -10.21)"/><path class="h" d="M1152.53,358.21c0-.88,0-1.71.06-2.46a1.6,1.6,0,0,0-3-.85,26.29,26.29,0,0,0-2.49,11.7" transform="translate(1.11 -10.21)"/><circle class="h" cx="1239.18" cy="326.18" r="0.93"/><ellipse class="h" cx="1172.8" cy="363.7" rx="8.78" ry="8.21"/><ellipse class="h" cx="1186.06" cy="364.59" rx="8.78" ry="8.21"/><ellipse class="h" cx="1198.65" cy="365.31" rx="8.78" ry="8.21"/><ellipse class="h" cx="1212.64" cy="365.31" rx="8.78" ry="8.21"/><ellipse class="h" cx="1225.62" cy="362.93" rx="8.78" ry="8.21"/><path class="h" d="M2025.7,406.89c0,16.76,30.62,24.67,73,24.67,28.09,0,54.47-12.07,54.47-21.1,0-5.75,1.22-12.73-4.2-12.73-1.64,0-.11-7.14-.11-17,0-9.53,4.87-17.24,10.9-17.24,10.4,0,15.25,4.88,15.25,14.41h-7.84c1.05,0,3.53.07,3.53,4-8.81,0-12.22-.07-12.22-4,0,7.89-1.9,16.26,1.49,16.26,12.32,0,20.39,15.71,20.39,31.15,0,16.27-18.44,25-30.76,25H2038.44c-22.34,0-21.07-24.17-21.4-30" transform="translate(1.11 -10.21)"/><path class="h" d="M2025.7,406.89c0-1.39,0-2.72.1-3.91a2.55,2.55,0,0,0-4.78-1.36c-2.33,4.32-4,11.33-4,18.65" transform="translate(1.11 -10.21)"/><circle class="h" cx="2163.2" cy="361.9" r="1.49"/><ellipse class="h" cx="2057.36" cy="421.72" rx="13.99" ry="13.1"/><ellipse class="h" cx="2078.5" cy="423.15" rx="13.99" ry="13.1"/><ellipse class="h" cx="2098.59" cy="424.29" rx="13.99" ry="13.1"/><ellipse class="h" cx="2120.9" cy="424.29" rx="13.99" ry="13.1"/><ellipse class="h" cx="2141.58" cy="420.5" rx="13.99" ry="13.1"/><path class="h" d="M366.5,383.74c0,10.5,19.2,15.47,45.78,15.47,17.62,0,34.17-7.57,34.17-13.24,0-3.6.76-8-2.64-8-1,0-.07-4.48-.07-10.66,0-6,3.06-10.81,6.84-10.81,6.52,0,9.57,3.06,9.57,9h-4.92c.66,0,2.21,0,2.21,2.52-5.52,0-7.66-.05-7.66-2.52,0,4.95-1.19,10.2.93,10.2,7.73,0,12.79,9.85,12.79,19.53,0,10.21-11.56,15.66-19.29,15.66H374.49c-14,0-13.22-15.16-13.42-18.82" transform="translate(1.11 -10.21)"/><path class="h" d="M366.5,383.74c0-.88,0-1.71.06-2.46a1.6,1.6,0,0,0-3-.85,26.29,26.29,0,0,0-2.49,11.7" transform="translate(1.11 -10.21)"/><circle class="h" cx="453.15" cy="351.71" r="0.93"/><ellipse class="h" cx="386.77" cy="389.23" rx="8.78" ry="8.21"/><ellipse class="h" cx="400.03" cy="390.12" rx="8.78" ry="8.21"/><ellipse class="h" cx="412.62" cy="390.84" rx="8.78" ry="8.21"/><ellipse class="h" cx="426.61" cy="390.84" rx="8.78" ry="8.21"/><ellipse class="h" cx="439.59" cy="388.46" rx="8.78" ry="8.21"/><path class="f" d="M1009.35,527.59c0-41.26-235.81-74.65-527.24-74.65" transform="translate(1.11 -10.21)"/><path class="f" d="M1182.27,614.74c0-75-100.92-135.77-225.64-135.77" transform="translate(1.11 -10.21)"/><path class="f" d="M877.83,420.27c0,13.51,171.41,24.45,383.24,24.45" transform="translate(1.11 -10.21)"/><line class="f" x1="1370.31" y1="399.05" x2="1515.03" y2="399.05"/><line class="f" x1="1500.26" y1="411.19" x2="1628.58" y2="411.19"/><path class="f" d="M2140.47,520.93c0,24,128.26,43.41,286.77,43.41" transform="translate(1.11 -10.21)"/><path class="f" d="M2340.37,588.16c0,10.34,84.6,18.7,189.15,18.7" transform="translate(1.11 -10.21)"/><path class="f" d="M2459.58,616.93c0,6.51,143.75,11.77,321.39,11.77" transform="translate(1.11 -10.21)"/><path class="f" d="M2781,628.7c0,3.6,57.58,6.5,128.73,6.5" transform="translate(1.11 -10.21)"/><path class="f" d="M3002.11,621.9c0,7.35-41.33,13.3-92.41,13.3" transform="translate(1.11 -10.21)"/><path class="f" d="M3208.72,640.11c-51.27-11.2-124.83-18.21-206.61-18.21" transform="translate(1.11 -10.21)"/><path class="f" d="M3208.72,640.11" transform="translate(1.11 -10.21)"/><path class="f" d="M2140.47,520.93c0-22.43-132.15-40.58-295.46-40.58" transform="translate(1.11 -10.21)"/><path class="f" d="M1660.89,456.44c0-7.89,2.59-14.27,5.77-14.27" transform="translate(1.11 -10.21)"/><path class="f" d="M1673.23,456.44c0-7.89-2.94-14.27-6.57-14.27" transform="translate(1.11 -10.21)"/><path class="f" d="M1654.66,485.25c0-11.76,2.79-23,5.71-23" transform="translate(1.11 -10.21)"/><path class="f" d="M1679,479.93c0-9-1.93-18.16-5.17-18.16" transform="translate(1.11 -10.21)"/><path class="f" d="M1664.78,472.08c-2.15,0-3.89-7-3.89-15.64h12.34c0,8.65-1.25,15.64-2.78,15.64" transform="translate(1.11 -10.21)"/><path class="f" d="M1667.66,475.6c0-3.89-1.53-3.52-2.88-3.52" transform="translate(1.11 -10.21)"/><path class="f" d="M1667.66,475.6c0-3.89,1-3.52,2.79-3.52" transform="translate(1.11 -10.21)"/><path class="f" d="M1652.82,441.74c0,5.68,1.19,10.7,8.07,10.7" transform="translate(1.11 -10.21)"/><path class="f" d="M1652.82,442.59c0,3.13,1.19,6.1,8.07,6.1" transform="translate(1.11 -10.21)"/><path class="f" d="M1673,448.69c7.31,0,8.39-2.54,8.39-5.67" transform="translate(1.11 -10.21)"/><path class="f" d="M1659.62,452.38l13.34.06c7.31,0,8.39-4.6,8.39-10.27" transform="translate(1.11 -10.21)"/><line class="f" x1="1660.73" y1="472.83" x2="1660.73" y2="461.87"/><line class="f" x1="1676.26" y1="461.87" x2="1676.26" y2="472.83"/><path class="f" d="M540,640c-35.22-24.59-144.8-42.5-274.7-42.5" transform="translate(1.11 -10.21)"/><path class="f" d="M314.18,640c-7.12-24.77-26.32-42.5-48.92-42.5" transform="translate(1.11 -10.21)"/><path class="f" d="M1597.18,453.19c0-7.89,2.58-14.28,5.77-14.28" transform="translate(1.11 -10.21)"/><path class="f" d="M1609.52,453.19c0-7.89-2.94-14.28-6.57-14.28" transform="translate(1.11 -10.21)"/><path class="f" d="M1591,482c0-11.77,2.79-23,5.71-23" transform="translate(1.11 -10.21)"/><path class="i" d="M1617.23,482c0-8.44-3.86-23.49-7.1-23.49" transform="translate(1.11 -10.21)"/><path class="f" d="M1601.07,468.83c-2.15,0-3.89-7-3.89-15.64h12.34c0,8.64-1.25,15.64-2.78,15.64" transform="translate(1.11 -10.21)"/><path class="f" d="M1604,472.34c0-3.88-1.53-3.51-2.88-3.51" transform="translate(1.11 -10.21)"/><path class="f" d="M1604,472.34c0-3.88,1-3.51,2.79-3.51" transform="translate(1.11 -10.21)"/><path class="f" d="M1589.11,452.44c0,5.67,1.19-3.26,8.07-3.26" transform="translate(1.11 -10.21)"/><path class="f" d="M1589.11,452.44c0,4.48,1.19-7,8.07-7" transform="translate(1.11 -10.21)"/><path class="f" d="M1609.25,445.43c7.31,0,8.39,9.5,8.39,6.37" transform="translate(1.11 -10.21)"/><path class="f" d="M1595.91,449.13l13.34.05c7.31,0,8.39,8.29,8.39,2.62" transform="translate(1.11 -10.21)"/><line class="f" x1="1597.02" y1="469.58" x2="1597.02" y2="458.61"/><line class="j" x1="1612.55" y1="458.61" x2="1612.55" y2="475.04"/><circle class="h" cx="3202.21" cy="249.91" r="5"/><circle class="h" cx="2929.94" cy="510.75" r="5"/><circle class="h" cx="2428.35" cy="554.12" r="5"/><circle class="h" cx="2530.63" cy="596.64" r="5"/><circle class="h" cx="2318.37" cy="388.54" r="5"/><circle class="h" cx="2626.59" cy="132.51" r="5"/><circle class="h" cx="2448.55" cy="334.72" r="5"/><circle class="h" cx="1370.31" cy="399.05" r="5"/><circle class="h" cx="1846.12" cy="470.14" r="5"/><circle class="h" cx="1010.46" cy="517.38" r="5"/><circle class="h" cx="957.74" cy="468.76" r="5"/><circle class="h" cx="878.94" cy="410.05" r="5"/><circle class="h" cx="1500.26" cy="411.19" r="5"/><circle class="h" cx="1886.37" cy="537.12" r="5"/><circle class="h" cx="262.12" cy="273.49" r="5"/><circle class="h" cx="172.13" cy="281.29" r="5"/><circle class="h" cx="181.9" cy="520.22" r="5"/><circle class="h" cx="2866.02" cy="388.54" r="5"/><circle class="h" cx="2972.3" cy="358.68" r="5"/><circle class="h" cx="3071.6" cy="402.7" r="5"/><circle class="h" cx="2562.71" cy="389.85" r="5"/><circle class="h" cx="396.25" cy="592.29" r="5"/><circle class="h" cx="528.57" cy="622.05" r="5"/><path class="b" d="M662.46,130.63c-3.19,0-6.32,0-9.37.11,5.86-3.91,9.37-8.9,9.37-14.34,0-12.55-18.75-22.73-41.88-22.73S578.7,103.85,578.7,116.4a12.83,12.83,0,0,0,.38,3c-1.72-.06-3.46-.09-5.23-.09-25.62,0-46.39,6.34-46.39,14.16,0,5.44,10,10.16,24.76,12.53,6.21-8.83,26-15.29,49.42-15.29,24.74,0,45.4,7.19,50.33,16.78,3.4.1,6.91.14,10.49.14,32.1,0,58.11-3.81,58.11-8.52S694.56,130.63,662.46,130.63Z" transform="translate(1.11 -10.21)"/><path class="b" d="M309.91,223.53c0-7.14,13.92-12.92,31.09-12.92a62.86,62.86,0,0,1,19.66,2.91c3.6-2.05,5.74-4.62,5.74-7.4,0-6.78-12.68-12.27-28.32-12.27s-28.32,5.49-28.32,12.27a6.09,6.09,0,0,0,1.07,3.35c-14.08.51-25,4.31-25,8.93s11.18,8.5,25.49,8.94A6.42,6.42,0,0,1,309.91,223.53Z" transform="translate(1.11 -10.21)"/></svg>